<svg width="24" height="25" viewBox="0 0 24 25" fill="none" xmlns="http://www.w3.org/2000/svg">
<path d="M11 2.5H9C4 2.5 2 4.5 2 9.5V15.5C2 20.5 4 22.5 9 22.5H15C20 22.5 22 20.5 22 15.5V13.5" stroke="#292D32" stroke-width="1.5" stroke-linecap="round" stroke-linejoin="round"/>
<path d="M16.04 3.52001L8.16 11.4C7.86 11.7 7.56 12.29 7.5 12.72L7.07 15.73C6.91 16.82 7.68 17.58 8.77 17.43L11.78 17C12.2 16.94 12.79 16.64 13.1 16.34L20.98 8.46001C22.34 7.10001 22.98 5.52001 20.98 3.52001C18.98 1.52001 17.4 2.16001 16.04 3.52001Z" stroke="#292D32" stroke-width="1.5" stroke-miterlimit="10" stroke-linecap="round" stroke-linejoin="round"/>
<path d="M14.91 4.65002C15.58 7.04002 17.45 8.91002 19.85 9.59002" stroke="#292D32" stroke-width="1.5" stroke-miterlimit="10" stroke-linecap="round" stroke-linejoin="round"/>
</svg>
