<svg width="24" height="25" viewBox="0 0 24 25" fill="none" xmlns="http://www.w3.org/2000/svg">
<path d="M21 6.47998C17.67 6.14998 14.32 5.97998 10.98 5.97998C9 5.97998 7.02 6.07998 5.04 6.27998L3 6.47998" stroke="#F56565" stroke-width="1.5" stroke-linecap="round" stroke-linejoin="round"/>
<path d="M8.5 5.47L8.72 4.16C8.88 3.21 9 2.5 10.69 2.5H13.31C15 2.5 15.13 3.25 15.28 4.17L15.5 5.47" stroke="#F56565" stroke-width="1.5" stroke-linecap="round" stroke-linejoin="round"/>
<path d="M18.85 9.64001L18.2 19.71C18.09 21.28 18 22.5 15.21 22.5H8.79C6 22.5 5.91 21.28 5.8 19.71L5.15 9.64001" stroke="#F56565" stroke-width="1.5" stroke-linecap="round" stroke-linejoin="round"/>
<path d="M10.33 17H13.66" stroke="#F56565" stroke-width="1.5" stroke-linecap="round" stroke-linejoin="round"/>
<path d="M9.5 13H14.5" stroke="#F56565" stroke-width="1.5" stroke-linecap="round" stroke-linejoin="round"/>
</svg>
